<?xml version="1.0" encoding="UTF-8"?>
<svg id="Layer_1" data-name="Layer 1" xmlns="http://www.w3.org/2000/svg" viewBox="0 0 36.84 36.84">
  <defs>
    <style>
      .cls-1 {
        fill: #dc7327;
      }

      .cls-1, .cls-2 {
        stroke-width: 0px;
      }

      .cls-2 {
        fill: #fff;
      }
    </style>
  </defs>
  <g>
    <path class="cls-1" d="M18.46,36.2c-9.77,0-17.81-7.97-17.82-17.74C.64,8.68,8.61.64,18.38.64c9.77,0,17.81,7.97,17.82,17.74.08,9.71-7.89,17.75-17.74,17.82Z"/>
    <path class="cls-2" d="M18.36,1.06c9.49-.02,17.27,7.65,17.35,17.22.02,9.49-7.65,17.27-17.22,17.35-9.49.02-17.27-7.65-17.35-17.22C1.19,8.86,8.86,1.08,18.36,1.06M18.35,0C8.22.05-.05,8.22,0,18.49s8.22,18.39,18.49,18.35c10.13-.05,18.39-8.22,18.35-18.49C36.79,8.07,28.62-.05,18.35,0h0Z"/>
  </g>
  <path class="cls-2" d="M26.91,17.42c.22-.2.37-.33.8-.31l2.19.06c1.98-.03,3.49-1.64,3.47-3.63s-1.64-3.49-3.48-3.46c-.28-.02-3.75,0-4.11.05-.99-.06-2.01.45-2.47.99-.53.61-4.06,4.16-4.06,4.16v-1.2c.06-.99-.82-1.82-1.88-1.81-.99-.06-1.82.82-1.73,1.81v4.82s-3.3,3.35-3.45,3.48c-.22.2-.37.33-.8.31-.28-.02-1.49-.01-2.19-.06-1.98.03-3.64,1.63-3.6,3.48.03,1.98,1.64,3.49,3.63,3.47.22-.06,3.75,0,4.11-.05.99.06,2.01-.45,2.47-.99.46-.54,10.97-10.84,11.12-11.12ZM14.29,27.46c-.22.2-.73.38-1.09.43-.28-.02-3.47.01-4.18-.03-.99-.06-1.79-.81-1.81-1.73s.81-1.79,1.73-1.81h2.41c.71.04,1.37-.42,1.82-.82.53-.61,11.12-11.12,11.35-11.32s.73-.38,1.09-.43c.28.02,3.47-.01,4.18.03.99.06,1.79.81,1.81,1.73s-.81,1.79-1.73,1.81h-2.41c-.71-.04-1.37.42-1.82.82-.67.6-11.2,11.18-11.35,11.32ZM17.17,11.76c.99.06,1.96-.81,1.87-1.8s-.82-1.82-1.88-1.81c-.99-.06-1.82.82-1.73,1.81s.82,1.82,1.74,1.8Z"/>
</svg>