<?xml version="1.0" encoding="UTF-8"?>
<svg id="Layer_1" data-name="Layer 1" xmlns="http://www.w3.org/2000/svg" viewBox="0 0 36.66 36.66">
  <defs>
    <style>
      .cls-1 {
        stroke: #fff;
        stroke-width: 1.24px;
      }

      .cls-1, .cls-2 {
        fill: #199bd3;
      }

      .cls-2, .cls-3 {
        stroke-width: 0px;
      }

      .cls-3 {
        fill: #fff;
      }
    </style>
  </defs>
  <g id="ValetIcons">
    <g>
      <path class="cls-1" d="M36.04,18.47c.09-9.77-7.8-17.75-17.57-17.84S.72,8.42.62,18.2s7.8,17.75,17.57,17.84c9.77.09,17.83-7.87,17.84-17.57Z"/>
      <g>
        <path class="cls-3" d="M16.59,22.04c-1.22,2.26-3.5,3.59-6.05,3.56-3.75-.04-6.67-3.07-6.7-6.76.04-3.75,3.07-6.67,6.76-6.7,2.41.02,4.59,1.3,5.81,3.16l13.46.06s2.05,2.19,2.45,2.5c.39.45.24.58,0,.92-.3.26-2.74,2.79-2.74,2.79l-1.66-1.6-1.67,1.59-1.59-1.67-1.74,1.65-1.66-1.6-2.19,2.05-2.48.04Z"/>
        <path class="cls-2" d="M7.68,20.66c.99.07,1.83-.8,1.83-1.86.07-.99-.8-1.83-1.79-1.75-1.06,0-1.9.86-1.89,1.79-.08,1.13.72,1.89,1.86,1.83Z"/>
      </g>
    </g>
  </g>
</svg>