<?xml version="1.0" encoding="UTF-8"?>
<svg id="Layer_1" data-name="Layer 1" xmlns="http://www.w3.org/2000/svg" viewBox="0 0 36.67 36.67">
  <defs>
    <style>
      .cls-1 {
        fill: #3f509e;
        stroke: #fff;
        stroke-width: 1.1px;
      }

      .cls-2 {
        fill: #fff;
        stroke-width: 0px;
      }
    </style>
  </defs>
  <g id="ATMIcon">
    <g>
      <path class="cls-1" d="M36.12,18.33c.01,9.85-7.93,17.78-17.78,17.79-9.85.01-17.78-7.93-17.79-17.78S8.48.56,18.33.55c9.84.13,17.84,8,17.79,17.78Z"/>
      <g>
        <path class="cls-2" d="M32.39,14.55c-.09-.86-.83-1.4-1.47-1.37s-1.23.42-1.41.97l-1.05,3.19c-.43,1.18-.87,2.5-1.15,3.68h0c-.21-1.15-.49-2.37-1.05-3.61l-1.07-3.19c-.25-.58-.78-1.04-1.42-1.01-.78.02-1.39.69-1.51,1.46h0l-.59,8.25h0c-.03.42.37.87.93.91.42.03.87-.37.91-.93l.21-3.39c.09-1.41.06-3.11.21-4.45h0c.34,1.3.74,2.81,1.08,4.25l1.17,3.9c.11.43.59.82,1.01.84s.8-.3.97-.72l1.31-3.96c.44-1.32.88-2.78,1.18-4.11h0c.05,1.42.09,3.12.07,4.47l.07,3.41h0c.04.5.37.87,1.01.84.5-.04.87-.37.98-.86h0l-.38-8.6Z"/>
        <path class="cls-2" d="M12.55,22.43l-2.61-8.1c-.24-.72-.85-1.12-1.63-1.1s-1.37.41-1.71,1.24l-2.58,8.27c-.11.63.08,1,.7,1.25.49.1,1-.08,1.25-.7l.64-2.3,3.41-.07.85,2.32c.25.58.8.76,1.16.71.45-.4.64-1.09.52-1.53ZM6.87,19.17l.8-2.57c.19-.7.3-1.33.48-2.02h0c.1.71.34,1.3.58,2.02l.9,2.54-2.77.04Z"/>
        <path class="cls-2" d="M19.87,13.05l-6.38.02h0c-.42-.03-.8.3-.76.8-.03.42.3.8.8.76h2.27s-.01,8.01-.01,8.01c-.04.56.36,1.01,1,.98.56.04,1.01-.36.98-1v-8.01s2.28,0,2.28,0c.42.03.8-.3.76-.8-.26-.44-.59-.82-.94-.77Z"/>
      </g>
    </g>
  </g>
</svg>