<?xml version="1.0" encoding="UTF-8"?>
<svg id="Layer_1" data-name="Layer 1" xmlns="http://www.w3.org/2000/svg" viewBox="0 0 37.2 37.19">
  <defs>
    <style>
      .cls-1 {
        stroke-width: 1.22px;
      }

      .cls-1, .cls-2 {
        fill: #3f509e;
        stroke: #fff;
      }

      .cls-2 {
        stroke-width: 3px;
      }
    </style>
  </defs>
  <g id="DiningIcon">
    <g>
      <path class="cls-1" d="M25.15,35.35c9.16-3.61,13.85-14.02,10.19-23.32C31.74,2.86,21.19-1.77,12.03,1.83S-1.77,15.99,1.83,25.15c3.47,9.21,13.93,13.8,23.32,10.19"/>
      <path class="cls-2" d="M25.84,18.59c0,4-3.24,7.24-7.24,7.24s-7.24-3.24-7.24-7.24c0-3.44,2.39-6.31,5.61-7.05.52-.12,1.07-.18,1.63-.18,4,0,7.24,3.24,7.24,7.24Z"/>
      <polygon class="cls-2" points="18.08 9.32 17.41 11.35 19.79 11.35 19.19 9.32 18.08 9.32"/>
      <polygon class="cls-2" points="18.08 27.86 17.41 25.83 19.79 25.83 19.19 27.86 18.08 27.86"/>
      <polygon class="cls-2" points="27.87 18.07 25.84 17.41 25.84 19.78 27.87 19.19 27.87 18.07"/>
      <polygon class="cls-2" points="9.33 18.07 11.36 17.41 11.36 19.78 9.33 19.19 9.33 18.07"/>
      <polygon class="cls-2" points="24.78 11.67 22.88 12.63 24.56 14.31 25.57 12.46 24.78 11.67"/>
      <polygon class="cls-2" points="11.67 24.78 12.64 22.87 14.32 24.55 12.46 25.57 11.67 24.78"/>
      <polygon class="cls-2" points="25.5 24.75 24.53 22.85 22.85 24.53 24.71 25.54 25.5 24.75"/>
      <polygon class="cls-2" points="12.39 11.64 14.3 12.61 12.62 14.29 11.6 12.43 12.39 11.64"/>
    </g>
  </g>
</svg>