<?xml version="1.0" encoding="UTF-8"?>
<svg id="Layer_1" data-name="Layer 1" xmlns="http://www.w3.org/2000/svg" viewBox="0 0 36.93 36.93">
  <defs>
    <style>
      .cls-1 {
        fill: #dc7327;
        stroke: #fff;
        stroke-width: 1.08px;
      }

      .cls-2 {
        fill: #fff;
        stroke-width: 0px;
      }
    </style>
  </defs>
  <path class="cls-1" d="M36.39,18.55c-.03,9.85-8.09,17.81-18.01,17.84-9.92.03-17.81-8.09-17.84-18.01S8.63.57,18.55.54c9.92.11,17.87,8.16,17.84,18.01Z"/>
  <g>
    <path class="cls-2" d="M26.21,11.91c1.06,0,1.83-.8,1.75-1.79,0-1.06-.8-1.83-1.79-1.75-1.06,0-1.83.8-1.75,1.79,0,.92.87,1.76,1.79,1.75Z"/>
    <path class="cls-2" d="M11.26,11.81c1.06,0,1.83-.8,1.75-1.79s-.8-1.83-1.79-1.75c-1.06,0-1.83.8-1.75,1.79-.07.99.73,1.75,1.79,1.75Z"/>
    <path class="cls-2" d="M28.23,12.4c1.35.02,2.34,1.01,2.25,2.28-.05.71,0,5.17-.03,5.6s-.34.83-.76.8-.75-.41-.8-.76c-.04-.5.06-5.1.06-5.1l-.42-.03s-.05,13.18-.11,14.03c-.04.56-.5,1.1-1.14,1.13s-1.1-.5-1.13-1.14c0-.92.06-8.15.06-8.15l-.42-.03s0,7.3-.06,8.15c-.04.56-.5,1.1-1.14,1.13-.56-.04-1.1-.5-1.13-1.14,0-.92.11-14.03.11-14.03l-.42-.03s-.03,4.53-.06,5.1c-.03.42-.41.75-.76.8-.42-.03-.75-.41-.8-.76s-.01-5.03.03-5.6c.02-1.35,1.01-2.34,2.28-2.25.99.07,3.75.04,4.39.02Z"/>
    <path class="cls-2" d="M11.34,23.15s-.03,5.6-.08,6.3c.04.5.37.88.93.91.5-.04.88-.37.91-.93.03-.42.02-3.47.08-6.3l2.41.02-2.47-8.46.42.03s1.33,4.41,1.43,4.99c.11.43.53.6.88.56s.53-.46.42-.89c-.12-.29-.85-3.11-1.48-5.35-.16-.79-1.23-1.71-2.15-1.71-.5.04-2.55-.03-2.91.01-.92,0-1.83.8-2.1,1.7-.65,2.29-1.55,5.07-1.64,5.42s.08.86.51.88.86-.08.88-.51c.18-.55,1.47-5,1.47-5l.42.03-2.55,8.33,2.41.02c.01,2.91-.06,6.02-.08,6.3.04.5.37.88.93.91.5-.04.88-.37.91-.93.05-.71.08-6.3.08-6.3l.36-.05Z"/>
    <rect class="cls-2" x="7.75" y="18.59" width="22" height="1.6" transform="translate(-.73 38.04) rotate(-89.7)"/>
  </g>
</svg>