<?xml version="1.0" encoding="UTF-8"?>
<svg id="Layer_1" data-name="Layer 1" xmlns="http://www.w3.org/2000/svg" viewBox="0 0 36.99 37.13">
  <defs>
    <style>
      .cls-1 {
        fill: #3f509e;
        stroke: #fff;
        stroke-width: 1.22px;
      }

      .cls-2 {
        fill: #fff;
        stroke-width: 0px;
      }
    </style>
  </defs>
  <g id="CafeIcons">
    <g>
      <path class="cls-1" d="M36.38,18.56c-.04,9.92-7.97,18-17.88,17.97-9.92-.04-17.93-8.03-17.89-17.95C.64,8.66,8.58.57,18.49.61c9.85-.04,17.86,7.96,17.89,17.95Z"/>
      <g>
        <path class="cls-2" d="M28.6,24.25c-.01,1.35-1.66,2.8-2.86,2.8h-15.37c-1.2-.02-2.81-1.53-2.8-2.88l21.04.08Z"/>
        <path class="cls-2" d="M9.64,10.98v9.35c-.01,1.35,1.59,2.86,2.86,2.94h10.56c1.2,0,2.79-1.53,2.8-2.87v-9.35s-16.22-.07-16.22-.07Z"/>
        <path class="cls-2" d="M27.78,10.95l-1.77-.04.03,7.72,1.77.04c2.19.06,3.79-1.75,3.84-3.8-.09-2.06-1.82-3.87-3.87-3.92ZM27.55,17.03l-1.63-.03.07-4.6,1.63.03c1.35.01,2.35.99,2.27,2.26-.01,1.35-1.07,2.41-2.34,2.34Z"/>
      </g>
    </g>
  </g>
</svg>