<?xml version="1.0" encoding="UTF-8"?>
<svg id="Layer_1" data-name="Layer 1" xmlns="http://www.w3.org/2000/svg" viewBox="0 0 36.95 36.95">
  <defs>
    <style>
      .cls-1 {
        fill: #42377a;
        stroke: #fdfeff;
        stroke-miterlimit: 10;
        stroke-width: 1.1px;
      }

      .cls-2 {
        fill: #fff;
        stroke-width: 0px;
      }
    </style>
  </defs>
  <g id="VendingIcon">
    <path class="cls-1" d="M36.4,18.39c.06,9.85-7.91,17.88-17.84,18.01S.68,28.49.55,18.56C.49,8.72,8.46.68,18.39.55c9.85-.06,18.03,7.92,18.01,17.84Z"/>
    <g>
      <g>
        <path class="cls-2" d="M29.25,7.35l.09,21.47-.71-.04-.02.42-9.99.06.02-.42-.56-.03-.09-21.47,11.26.02ZM24.43,11.1l2.83.02.04-1.91-2.83-.02-.04,1.91ZM24.52,14.51l2.83.02.04-1.91-2.83-.02-.04,1.91ZM24.46,17.9l2.83.02.04-1.91-2.83-.02-.04,1.91ZM19.96,11.2l2.83.02.04-1.91-2.83-.02-.04,1.91ZM19.98,14.53l2.83.02.04-1.91-2.83-.02-.04,1.91ZM28.21,20.32l-9.07.04-.04,3.11,9.07-.04.04-3.11Z"/>
        <rect class="cls-2" x="20.93" y="20.5" width="1.4" height="2.8" transform="translate(-4.84 37.61) rotate(-76.05)"/>
      </g>
      <g>
        <circle class="cls-2" cx="11.9" cy="9.81" r="1.7"/>
        <path class="cls-2" d="M16.96,18.95c-.19-.37-2.6-5.18-2.73-5.47-.25-.58-.72-.96-1.28-1.14s-3.3-.55-3.92-.8c-1.2-.14-2.37.5-2.58,1.76-.11.63-1.06,4.83-1.15,5.17s.17.79.66.89c.35.09.79-.17.89-.66.1-.49.99-4.76.99-4.76l.7.18-.99,4.76s.04,9.07.01,9.49c-.03.56.51,1.02,1.01.98.56.03,1.02-.51.98-1.01-.03-.78-.04-7.86-.04-7.86l.71.04s.02,6.94.04,7.86c-.03.56.51,1.02,1.01.98.5-.04,1.02-.51.98-1.01-.04-.5.01-8.71.01-8.71l.84-4.63.28.02s2.04,3.94,2.22,4.45.61.53,1.05.27c.5-.04.6-.53.33-.83Z"/>
      </g>
    </g>
  </g>
</svg>