<?xml version="1.0" encoding="UTF-8"?>
<svg id="Layer_1" data-name="Layer 1" xmlns="http://www.w3.org/2000/svg" viewBox="0 0 26.96 26.96">
  <defs>
    <style>
      .cls-1 {
        fill: #3f509e;
        stroke: #fff;
        stroke-miterlimit: 4;
        stroke-width: .94px;
      }

      .cls-2 {
        fill: #fff;
        stroke-width: 0px;
      }
    </style>
  </defs>
  <rect class="cls-1" x=".48" y=".48" width="26" height="26"/>
  <g>
    <path class="cls-2" d="M19.5,15.82s-.02-5.32-.03-7.58c.03-.56-.49-1.16-1.13-1.13s-1.16.49-1.13,1.13c.02,1.98.03,7.58.03,7.58l-1.73-1.81c-.4-.45-1.1-.49-1.49-.02-.45.4-.43,1.18-.03,1.63,1.33,1.36,3.53,3.69,3.53,3.69.4.45,1.11.35,1.49.02,0,0,1.83-2.01,3.49-3.75.45-.4.43-1.18.03-1.63s-1.1-.49-1.49-.02c-1.15,1.42-1.53,1.89-1.53,1.89Z"/>
    <path class="cls-2" d="M7.4,10.89s.02,5.32.03,7.58c-.03.56.49,1.16,1.13,1.13.56.04,1.16-.49,1.13-1.13-.02-1.98-.03-7.58-.03-7.58l1.73,1.81c.4.45,1.11.35,1.49.02.45-.4.43-1.18.03-1.63-1.26-1.42-3.53-3.69-3.53-3.69-.4-.45-1.11-.35-1.49-.02,0,0-1.89,1.94-3.49,3.75-.45.4-.43,1.18-.03,1.63s1.11.35,1.49.02c1.16-1.56,1.53-1.89,1.53-1.89Z"/>
  </g>
</svg>