<?xml version="1.0" encoding="UTF-8"?>
<svg id="Layer_1" data-name="Layer 1" xmlns="http://www.w3.org/2000/svg" viewBox="0 0 27.59 27.59">
  <defs>
    <style>
      .cls-1 {
        fill: #dbbd9b;
        stroke: #a27a4b;
        stroke-miterlimit: 4;
        stroke-width: 1.5px;
      }

      .cls-2 {
        fill: #fff;
        stroke-width: 0px;
      }
    </style>
  </defs>
  <rect class="cls-1" x=".8" y=".8" width="26" height="26" transform="translate(-.05 .05) rotate(-.2)"/>
  <g>
    <path class="cls-2" d="M19.8,16.19s-.04-5.31-.04-7.58c-.03-.64-.5-1.16-1.14-1.13s-1.16.5-1.13,1.14c.02,1.98.04,7.58.04,7.58l-1.73-1.8c-.4-.45-1.1-.49-1.49-.02-.45.4-.42,1.18-.03,1.63,1.26,1.42,3.54,3.68,3.54,3.68.4.45,1.11.35,1.49.02,0,0,1.82-2.02,3.48-3.76.45-.4.42-1.18.03-1.63s-1.1-.49-1.49-.02c-1.08,1.49-1.53,1.89-1.53,1.89Z"/>
    <path class="cls-2" d="M7.69,11.29s.04,5.31.04,7.58c.03.64.5,1.16,1.14,1.13s1.16-.5,1.13-1.14c-.02-1.98-.04-7.58-.04-7.58l1.73,1.8c.4.45,1.11.35,1.49.02s.42-1.18.03-1.63c-1.26-1.42-3.54-3.68-3.54-3.68-.4-.45-1.11-.35-1.49-.02,0,0-1.89,1.94-3.48,3.76-.45.4-.42,1.18-.03,1.63s1.11.35,1.49.02c1.16-1.56,1.53-1.89,1.53-1.89Z"/>
  </g>
</svg>