<?xml version="1.0" encoding="UTF-8"?>
<svg id="Layer_1" data-name="Layer 1" xmlns="http://www.w3.org/2000/svg" viewBox="0 0 37.2 42.05">
  <defs>
    <style>
      .cls-1 {
        fill: #3f509e;
        stroke: #fff;
        stroke-width: 1.22px;
      }

      .cls-2 {
        fill: #fff;
        stroke-width: 0px;
      }
    </style>
  </defs>
  <g id="DiningIcon">
    <g>
      <path class="cls-1" d="M25.15,35.35c9.16-3.61,13.85-14.02,10.19-23.32C31.74,2.86,21.19-1.77,12.03,1.83S-1.77,15.99,1.83,25.15c3.47,9.21,13.93,13.8,23.32,10.19"/>
      <g>
        <path class="cls-2" d="M15.59,15.02s.04-7.74.09-8.05c-.04-.36.32-.62.68-.66s.62.32.66.68c.04.36.02,10.47.05,11.05-.02,1.34-1.19,2.54-2.53,2.52,0,0-.07,18.29-.04,19.54-.01,1.12-.87,1.91-1.9,1.95s-1.91-.87-1.95-1.9c.06-.98.04-19.54.04-19.54-1.34-.02-2.58-1.1-2.61-2.58-.04-.36-.02-10.47-.05-11.05-.04-.36.32-.62.68-.66.36-.04.62.32.66.68l-.09,8.05,1.16-.08.09-8.05c-.04-.36.32-.62.68-.66s.62.32.66.68l-.09,8.05,1.16-.08s0-7.65.09-8.05c-.04-.36.32-.62.68-.66.36-.04.62.32.66.68,0,.67-.09,8.05-.09,8.05l1.3.1Z"/>
        <path class="cls-2" d="M21.21,27.92s.02-17.76,0-18.78c.02-1.57,1.29-2.94,2.9-3.01,1.57.02,2.94,1.29,3.01,2.9,0,0-.03,29.79-.04,30.9s-.87,1.91-1.9,1.95c-1.12-.01-1.91-.87-1.95-1.9.06-.98.05-12.12.05-12.12l-2.06.07Z"/>
      </g>
    </g>
  </g>
</svg>