<?xml version="1.0" encoding="UTF-8"?>
<svg id="Layer_1" data-name="Layer 1" xmlns="http://www.w3.org/2000/svg" viewBox="0 0 34.25 34.25">
  <defs>
    <style>
      .cls-1 {
        fill: #42377a;
        stroke: #fff;
        stroke-width: 1.09px;
      }

      .cls-2 {
        fill: #fff;
        stroke-width: 0px;
      }
    </style>
  </defs>
  <g id="BicycleIcon">
    <path class="cls-1" d="M33.71,17.1c0,9.21-7.34,16.62-16.55,16.61-9.21,0-16.62-7.34-16.61-16.55C.55,7.95,7.89.54,17.1.55c9.07,0,16.54,7.41,16.61,16.55Z"/>
    <path class="cls-2" d="M25.78,14.76c-.28-.02-.64.03-.86.09l-.53-1.8-.82-2.74h.92c.71.03,1.45-.49,1.49-1.2l.11-.63c.09-.35-.25-.58-.46-.52-1.3.34-4.38.93-6.07.83-.28-.02-.45.4-.18.56.75.4,1.93.83,3.19,1.05l.16.79-11.62-.02h0l.85-3.42c.19-.84.94-1.5,1.81-1.73l3.72-.62c.28.02.52-.32.39-.61.02-.28-.32-.52-.61-.39l-3.72.62c-1.29.2-2.41,1.2-2.71,2.52l-1.89,7.53c-.28-.02-.49-.1-.77-.12-3.11-.05-5.54,2.49-5.52,5.54s2.49,5.54,5.54,5.52c3.11.05,5.54-2.49,5.52-5.54,0-2.41-1.5-4.42-3.64-5.19l.47-1.88,6.27,7.4h3.61c.11,2.85,2.51,5.27,5.48,5.31,3.11.05,5.54-2.49,5.52-5.54-.14-3.48-2.61-5.83-5.66-5.81ZM12.75,20.26c-.02,2.55-1.98,4.55-4.61,4.6-2.55-.02-4.55-1.98-4.6-4.61.02-2.55,1.98-4.55,4.61-4.6.22-.06.42.03.64-.03l-1.05,4.4c-.09.35.11.57.39.59h.14c.22-.05.37-.18.45-.39l1.05-4.4c1.72.89,3.04,2.39,2.98,4.44ZM11.07,12h0l12.05-.1.88,2.96c-1.89.73-3.33,2.27-3.6,4.38l-3.11-.05-6.21-7.19ZM24.14,15.94l.98,3.53-3.97.04c.39-1.68,1.53-2.95,2.99-3.57ZM25.78,24.89c-2.41,0-4.34-1.9-4.62-4.33h5.46s-1.4-4.78-1.4-4.78c.22-.06.42.03.64-.03,2.55.02,4.55,1.98,4.6,4.61s-2.19,4.47-4.67,4.53Z"/>
  </g>
</svg>