<?xml version="1.0" encoding="UTF-8"?>
<svg id="Layer_1" data-name="Layer 1" xmlns="http://www.w3.org/2000/svg" viewBox="0 0 37.13 37.06">
  <defs>
    <style>
      .cls-1 {
        fill: #dc7327;
        stroke-width: 1.22px;
      }

      .cls-1, .cls-2 {
        stroke: #fff;
      }

      .cls-2 {
        fill: none;
        stroke-miterlimit: 10;
        stroke-width: 3px;
      }

      .cls-3 {
        fill: #fff;
        stroke-width: 0px;
      }
    </style>
  </defs>
  <path class="cls-2" d="M20.82,9.83c-2.39,0-7.87,0-7.87,0v17.86h7.87"/>
  <path class="cls-3" d="M28.98,17.2s0-.02-.02-.03l-4.09-4.46-2.21,2.03,2.32,2.53h-6.82v3h6.69l-2.17,2.22,2.15,2.09,5.62-5.76-1.49-1.61Z"/>
  <g id="InfoIcon-2" data-name="InfoIcon">
    <g>
      <path class="cls-1" d="M36.53,18.59c-.09,9.92-8.06,17.96-18.12,17.86-9.92-.09-17.89-8.13-17.8-18.04S8.74.52,18.65.61c9.99.02,17.96,8.06,17.87,17.98Z"/>
      <g>
        <path class="cls-3" d="M13.8,12.83l7.32-.3-.07,13.89c-.03.42.09.71.29.94.27.16.62.25,1.11.36h1.06s-.04,1.63-.04,1.63l-9.77-.08.04-1.63h1.06c.56.04,1-.08,1.23-.42s.4-.75.38-1.39l.06-9.49c.04-.56-.21-1.15-.47-1.45s-.82-.48-1.38-.52l-.71-.05-.11-1.5h0Z"/>
        <path class="cls-3" d="M18.37,4.84c.78-.02,1.39.38,2,.77.6.54.77,1.18.79,1.97s-.31,1.47-.77,2c-.54.6-1.18.77-1.97.79s-1.47-.31-2-.77c-.6-.54-.77-1.18-.79-1.97s.31-1.47.77-2,1.12-.85,1.97-.79Z"/>
      </g>
    </g>
  </g>
</svg>