<?xml version="1.0" encoding="UTF-8"?>
<svg id="Layer_1" data-name="Layer 1" xmlns="http://www.w3.org/2000/svg" version="1.1" viewBox="0 0 37.1 37.1">
  <defs>
    <style>
      .cls-1 {
        fill: none;
        stroke-miterlimit: 10;
        stroke-width: 3px;
      }

      .cls-1, .cls-2 {
        stroke: #fff;
      }

      .cls-2 {
        fill: #dc7327;
        stroke-width: 1.2px;
      }

      .cls-3 {
        fill: #fff;
        stroke-width: 0px;
      }
    </style>
  </defs>
  <path class="cls-1" d="M20.8,9.8h-7.9v17.9h7.9"/>
  <path class="cls-3" d="M29,17.2s0,0,0,0l-4.1-4.5-2.2,2,2.3,2.5h-6.8v3h6.7l-2.2,2.2,2.1,2.1,5.6-5.8-1.5-1.6h0Z"/>
  <g id="InfoIcon-2">
    <g>
      <path class="cls-2" d="M36.5,18.6c0,9.9-8.1,18-18.1,17.9-9.9,0-17.9-8.1-17.8-18S8.7.5,18.6.6c10,0,18,8.1,17.9,18h0Z"/>
      <g>
        <path class="cls-3" d="M13.8,12.8l7.3-.3v13.9c-.1.4,0,.7.2.9.3.2.6.2,1.1.4h1.1v1.6s-9.8,0-9.8,0v-1.6h1.1c.6,0,1,0,1.2-.4s.4-.8.4-1.4v-9.5c.1-.6-.1-1.1-.4-1.4s-.8-.5-1.4-.5h-.7c0,0-.1-1.6-.1-1.6h0Z"/>
        <path class="cls-3" d="M18.4,4.8c.8,0,1.4.4,2,.8.6.5.8,1.2.8,2s-.3,1.5-.8,2c-.5.6-1.2.8-2,.8s-1.5-.3-2-.8c-.6-.5-.8-1.2-.8-2s.3-1.5.8-2,1.1-.8,2-.8Z"/>
      </g>
    </g>
  </g>
</svg>