<?xml version="1.0" encoding="UTF-8"?>
<svg id="Layer_1" data-name="Layer 1" xmlns="http://www.w3.org/2000/svg" viewBox="0 0 39.07 39.07">
  <defs>
    <style>
      .cls-1 {
        fill: #010101;
        stroke: #fff;
        stroke-width: 1.24px;
      }

      .cls-2 {
        fill: #fff;
        stroke-width: 0px;
      }
    </style>
  </defs>
  <g id="HandicapIcon">
    <path class="cls-1" d="M38.45,19.71c-.09,10.55-8.68,18.82-19.09,18.73-10.41-.09-18.82-8.68-18.73-19.09C.72,8.8,9.3.54,19.71.62c10.41.09,18.83,8.54,18.73,19.09"/>
    <path class="cls-2" d="M20.02,12.55c.99.07,1.97-.78,1.91-1.92.07-.99-.86-1.9-1.92-1.91s-1.97.78-1.91,1.92c0,.92.94,1.84,1.92,1.91"/>
    <path class="cls-2" d="M28.32,25.74l-3.35-5.83c-.26-.3-.6-.54-.88-.56l-4.53-.03,1.01-4.32h0c-.06-.22.1-.35.1-.49.07-.99-.8-1.69-1.65-1.74-.5.04-1.01.21-1.32.62l-3.54.96c-.43.11-.6.53-.56.88l.6,2.52c-1.51,1.31-2.56,3.15-2.57,5.42-.06,3.89,3.12,7.09,6.94,7.22,2.91-.01,5.37-1.75,6.53-4.22l-1.08-1.85c-.53,2.59-2.72,4.49-5.41,4.44-2.97-.06-5.5-2.51-5.5-5.56.02-1.35.61-2.65,1.53-3.72.07.08.4.31.7.19.43-.11.74-.52.56-.88l-.71-3.1,1.73-.45-1.19,4.88c0,.14-.02.28-.02.28.02.78.61,1.46,1.23,1.72.21.09.35.1.49.1h6.1s2.66,4.58,2.66,4.58c.32.52,1.01.71,1.53.39.65-.17.92-.93.6-1.45"/>
  </g>
</svg>