<?xml version="1.0" encoding="UTF-8"?>
<svg id="Layer_1" data-name="Layer 1" xmlns="http://www.w3.org/2000/svg" viewBox="0 0 35.98 35.97">
  <defs>
    <style>
      .cls-1 {
        fill: #779658;
        stroke-width: 0px;
      }

      .cls-2 {
        fill: none;
        stroke: #fff;
        stroke-width: 3px;
      }
    </style>
  </defs>
  <g id="DiningIcon">
    <path class="cls-1" d="M24.55,34.74c9.16-3.61,13.85-14.02,10.19-23.32C31.13,2.26,20.59-2.38,11.42,1.23S-2.38,15.38,1.23,24.55c3.47,9.21,13.93,13.8,23.32,10.19"/>
  </g>
  <polyline class="cls-2" points="6.7 11.14 6.7 21.29 12.48 21.29 12.48 26.9 12.48 21.29 6.7 21.29 6.7 26.9"/>
  <polyline class="cls-2" points="30 11.14 30 21.29 24.23 21.29 24.23 26.9 24.23 21.29 30 21.29 30 26.9"/>
  <line class="cls-2" x1="18.35" y1="26.9" x2="18.35" y2="15.78"/>
  <line class="cls-2" x1="12.48" y1="15.78" x2="24.23" y2="15.78"/>
</svg>