<?xml version="1.0" encoding="UTF-8"?>
<svg id="Layer_1" data-name="Layer 1" xmlns="http://www.w3.org/2000/svg" viewBox="0 0 36.43 36.3">
  <defs>
    <style>
      .cls-1 {
        fill: #46529a;
        stroke: #fff;
        stroke-miterlimit: 10;
        stroke-width: 1.12px;
      }

      .cls-2 {
        fill: #fff;
        stroke-width: 0px;
      }
    </style>
  </defs>
  <g id="GiftShopIcons">
    <path class="cls-1" d="M18.22,35.74c9.92.06,17.88-8.15,17.65-18.08-.2-9.15-7.85-16.94-17.06-17.09C8.78.22.62,8.2.56,18.12c.09,9.78,7.95,17.65,17.66,17.63"/>
    <path class="cls-2" d="M21.17,10.35l1.71-1.24h0c.52-.32.56-1.03.23-1.4s-1.03-.56-1.4-.23h0l-1.56,1.11.71-2.22h0c.24-.48-.07-1.14-.7-1.25-.48-.24-1.14.07-1.31.63h0l-.71,2.22-.71-2.17h0c-.18-.51-.8-.76-1.31-.58-.51.18-.83.73-.58,1.31h0l.71,2.17-1.49-1.09h0c-.55-.32-1.12-.21-1.43.19-.32.55-.21,1.12.19,1.43h0l1.69,1.31h-4.53s-.02,18.13-.02,18.13l14.95.03.02-18.14-4.45-.21ZM17.25,26.33h-4.53s0-8.93,0-8.93h4.53s0,8.93,0,8.93ZM17.24,15.42h-4.53s.05-2.98.05-2.98h4.53s-.05,2.98-.05,2.98ZM23.7,26.39h-4.53s0-8.93,0-8.93h4.53s0,8.93,0,8.93ZM23.76,15.41h-4.53s.05-2.98.05-2.98h4.53s-.05,2.98-.05,2.98Z"/>
  </g>
</svg>